<svg width="84" height="92" viewBox="0 0 84 92" fill="none" xmlns="http://www.w3.org/2000/svg">
<path d="M0.5 44.1299C0.5 41.2395 1.64958 38.469 3.6933 36.4338L38.1996 2.0714C40.3036 -0.0237966 43.6965 -0.0238054 45.8003 2.0714L80.3067 36.4338C82.3507 38.469 83.5 41.2395 83.5 44.1299V86.0807C83.5 89.0738 81.0838 91.5 78.1031 91.5H5.89704C2.91634 91.5 0.5 89.0738 0.5 86.0807V44.1299Z" fill="#891723"/>
<path d="M48 46.7435C48 49.916 44.8663 46.0805 41.0001 46.0805C37.1341 46.0805 34 49.916 34 46.7435C34 43.5715 37.1341 41 41.0001 41C44.8663 41 48 43.5715 48 46.7435Z" fill="#891723"/>
<path d="M48 46.7435C48 49.916 44.8663 46.0805 41.0001 46.0805C37.1341 46.0805 34 49.916 34 46.7435C34 43.5715 37.1341 41 41.0001 41C44.8663 41 48 43.5715 48 46.7435Z" fill="#891723"/>
<path d="M42.8212 30.918L47.0239 23.2964C47.5016 22.4295 47.35 21.3405 46.6546 20.6458L41 15L35.4059 20.6459C34.7169 21.3412 34.5688 22.4251 35.0448 23.2883L39.2517 30.918L30 26.2232C30 26.2232 31.457 32.2696 36.9934 37C37.8676 35.6484 39.3245 35.503 41 35.503C42.6756 35.503 44.1325 35.7235 45.0066 37C50.5429 32.2696 52 26.2232 52 26.2232L42.8212 30.918Z" fill="white"/>
<path d="M50 42.0259C50 47.0104 46.1944 40.984 41.5 40.984C36.8055 40.984 33 47.0104 33 42.0259C33 37.041 36.8055 33 41.5 33C46.1944 33 50 37.041 50 42.0259Z" fill="#891723"/>
<path d="M47 46.0003C47 49.314 44.3136 52 40.9999 52C37.6862 52 35 49.314 35 46.0003C35 42.6866 37.6862 40 40.9999 40C44.3136 40 47 42.6866 47 46.0003Z" fill="white"/>
<path d="M47 73.0002C47 76.314 44.3135 79 41 79C37.6862 79 35 76.314 35 73.0002C35 69.686 37.6862 67 41 67C44.3135 67 47 69.686 47 73.0002Z" fill="white"/>
<path d="M39 60C39 63.3136 36.3137 66 33 66C29.6862 66 27 63.3136 27 60C27 56.6864 29.6862 54 33 54C36.3137 54 39 56.6864 39 60Z" fill="white"/>
<path d="M56 60C56 63.3136 53.3136 66 50 66C46.686 66 44 63.3136 44 60C44 56.6864 46.686 54 50 54C53.3136 54 56 56.6864 56 60Z" fill="white"/>
<path d="M30 45.9999C30 49.314 27.3137 52 24 52C20.6862 52 18 49.314 18 45.9999C18 42.6862 20.6862 40 24 40C27.3137 40 30 42.6862 30 45.9999Z" fill="white"/>
<path d="M65 46C65 49.3136 62.3136 52 59 52C55.6864 52 53 49.3136 53 46C53 42.6863 55.6864 40 59 40C62.3136 40 65 42.6863 65 46Z" fill="white"/>
<path fill-rule="evenodd" clip-rule="evenodd" d="M79 44.5404V83.7635C79 85.5509 77.55 87 75.7614 87H7.23848C5.44993 87 4 85.5509 4 83.7635V44.5404C4 42.8143 4.68977 41.1597 5.91614 39.9444L39.2195 6.93842C40.482 5.68719 42.5179 5.68719 43.7801 6.93842L77.0836 39.9444C78.3099 41.1597 79 42.8143 79 44.5404ZM6.67625 40.7103C5.6543 41.7232 5.07951 43.1019 5.07951 44.5404V83.7635C5.07951 84.955 6.04611 85.9212 7.23848 85.9212H75.7614C76.9536 85.9212 77.9205 84.955 77.9205 83.7635V44.5404C77.9205 43.1019 77.3453 41.7232 76.3237 40.7103L43.0202 7.70439C42.1785 6.87025 40.8214 6.87025 39.9797 7.70439L6.67625 40.7103Z" fill="white"/>
</svg>
