<svg width="33" height="40" viewBox="0 0 33 40" fill="none" xmlns="http://www.w3.org/2000/svg">
<path d="M16.2799 23.75C17.9223 23.75 19.2537 22.0711 19.2537 20C19.2537 17.9289 17.9223 16.25 16.2799 16.25C14.6376 16.25 13.3062 17.9289 13.3062 20C13.3062 22.0711 14.6376 23.75 16.2799 23.75Z" fill="black"/>
<path d="M16.2799 36.25C17.9223 36.25 19.2537 34.5711 19.2537 32.5C19.2537 30.4289 17.9223 28.75 16.2799 28.75C14.6376 28.75 13.3062 30.4289 13.3062 32.5C13.3062 34.5711 14.6376 36.25 16.2799 36.25Z" fill="black"/>
<path d="M16.2799 11.25C17.9223 11.25 19.2537 9.57107 19.2537 7.5C19.2537 5.42893 17.9223 3.75 16.2799 3.75C14.6376 3.75 13.3062 5.42893 13.3062 7.5C13.3062 9.57107 14.6376 11.25 16.2799 11.25Z" fill="black"/>
</svg>
