<svg width="194" height="209" viewBox="0 0 194 209" fill="none" xmlns="http://www.w3.org/2000/svg">
<path opacity="0.3" d="M0.391633 162.795C12.751 181.298 30.821 195.331 51.9482 202.834C73.0754 210.336 96.1469 210.913 117.775 204.479C139.403 198.045 158.448 184.939 172.114 167.087C185.78 149.234 193.347 127.574 193.704 105.288C194.06 83.0013 187.188 61.2628 174.096 43.2638C161.003 25.2647 142.381 11.9535 120.962 5.28459C99.5437 -1.38435 76.4578 -1.05964 55.0942 6.21101C33.7306 13.4817 15.2148 27.3152 2.26548 45.6805L35.1819 68.2352C43.1836 56.8868 54.625 48.3387 67.8262 43.846C81.0273 39.3532 95.2927 39.1526 108.528 43.2735C121.763 47.3944 133.27 55.6198 141.36 66.7419C149.45 77.8639 153.697 91.2968 153.477 105.068C153.256 118.839 148.581 132.223 140.136 143.255C131.691 154.287 119.923 162.385 106.558 166.361C93.1937 170.337 78.9373 169.981 65.8822 165.344C52.8271 160.708 41.6612 152.037 34.024 140.603L0.391633 162.795Z" fill="#3D362B" fill-opacity="0.8"/>
</svg>
