<svg width="40" height="40" viewBox="0 0 40 40" fill="none" xmlns="http://www.w3.org/2000/svg">
<g clip-path="url(#clip0_800_17929)">
<path d="M39.6094 20.4609C39.6094 19.1014 39.4992 17.7345 39.264 16.397H20.3994V24.0986H31.2023C30.754 26.5825 29.3136 28.7798 27.2045 30.1761V35.1734H33.6495C37.4341 31.69 39.6094 26.5458 39.6094 20.4609Z" fill="#4285F4"/>
<path d="M20.3994 40.0015C25.7935 40.0015 30.3424 38.2305 33.6568 35.1733L27.2118 30.1761C25.4187 31.396 23.1038 32.0868 20.4067 32.0868C15.189 32.0868 10.765 28.5667 9.17763 23.834H2.52689V28.9856C5.92207 35.7392 12.8374 40.0015 20.3994 40.0015Z" fill="#34A853"/>
<path d="M9.17028 23.834C8.33251 21.3501 8.33251 18.6604 9.17028 16.1765V11.0249H2.52689C-0.309784 16.6762 -0.309784 23.3343 2.52689 28.9856L9.17028 23.834Z" fill="#FFCE38"/>
<path d="M20.3994 7.9161C23.2508 7.87201 26.0066 8.94494 28.0716 10.9144L33.7817 5.20436C30.1661 1.80917 25.3672 -0.0574433 20.3994 0.00134778C12.8374 0.00134778 5.92207 4.2637 2.52689 11.0247L9.17028 16.1763C10.7503 11.4362 15.1817 7.9161 20.3994 7.9161Z" fill="#EA4335"/>
</g>
<defs>
<clipPath id="clip0_800_17929">
<rect width="40" height="40" fill="white" transform="translate(-0.000610352)"/>
</clipPath>
</defs>
</svg>
