<svg width="30" height="30" viewBox="0 0 20 20" fill="none" xmlns="http://www.w3.org/2000/svg">
<g id="Group">
<path id="Vector" d="M9.99999 19.9903C11.366 19.9903 12.652 19.7289 13.8578 19.2063C15.0637 18.6837 16.1274 17.9618 17.049 17.0407C17.9706 16.1196 18.6928 15.0564 19.2156 13.8511C19.7385 12.6458 20 11.3605 20 9.99512C20 8.62978 19.7385 7.34445 19.2156 6.13916C18.6928 4.93387 17.9706 3.87066 17.049 2.94954C16.1274 2.02842 15.0621 1.30655 13.8529 0.783931C12.6438 0.26131 11.3562 0 9.99018 0C8.62417 0 7.33823 0.26131 6.13235 0.783931C4.92646 1.30655 3.86437 2.02842 2.94607 2.94954C2.02778 3.87066 1.30719 4.93387 0.784313 6.13916C0.261438 7.34445 0 8.62978 0 9.99512C0 11.3605 0.261438 12.6458 0.784313 13.8511C1.30719 15.0564 2.02941 16.1196 2.95097 17.0407C3.87255 17.9618 4.93627 18.6837 6.14214 19.2063C7.34803 19.7289 8.63398 19.9903 9.99999 19.9903ZM9.99999 18.3244C8.84313 18.3244 7.76143 18.1088 6.7549 17.6777C5.74836 17.2465 4.86437 16.6504 4.10293 15.8893C3.3415 15.1283 2.74673 14.2447 2.31862 13.2387C1.89052 12.2326 1.67647 11.1515 1.67647 9.99512C1.67647 8.83882 1.89052 7.75765 2.31862 6.75161C2.74673 5.74556 3.33987 4.86037 4.09803 4.09604C4.8562 3.3317 5.73855 2.73559 6.74509 2.30769C7.75163 1.8798 8.83332 1.66586 9.99018 1.66586C11.1471 1.66586 12.2288 1.8798 13.2353 2.30769C14.2418 2.73559 15.1274 3.3317 15.8922 4.09604C16.6569 4.86037 17.2549 5.74556 17.6863 6.75161C18.1176 7.75765 18.3333 8.83882 18.3333 9.99512C18.3333 11.1515 18.1193 12.2326 17.6912 13.2387C17.263 14.2447 16.6683 15.1283 15.9068 15.8893C15.1454 16.6504 14.2598 17.2465 13.2499 17.6777C12.2402 18.1088 11.1569 18.3244 9.99999 18.3244ZM7.64705 5.6737C7.0915 5.6737 6.59803 5.80273 6.16666 6.06077C5.73529 6.31881 5.39706 6.67158 5.15196 7.11908C4.90686 7.56657 4.7843 8.08102 4.7843 8.66244C4.7843 9.17853 4.88234 9.68318 5.07842 10.1764C5.2745 10.6696 5.53757 11.1432 5.86764 11.5973C6.19771 12.0513 6.56862 12.4808 6.98038 12.8859C7.39215 13.2909 7.81699 13.6617 8.2549 13.9981C8.6928 14.3345 9.1111 14.6301 9.5098 14.8849C9.59476 14.9306 9.68463 14.9796 9.7794 15.0319C9.87417 15.0842 9.95423 15.1103 10.0196 15.1103C10.0784 15.1103 10.152 15.0858 10.2402 15.0368C10.3284 14.9878 10.4085 14.9372 10.4804 14.8849C10.8791 14.6236 11.2974 14.3231 11.7353 13.9833C12.1732 13.6436 12.5981 13.2729 13.0098 12.8711C13.4215 12.4694 13.7941 12.0415 14.1275 11.5875C14.4608 11.1334 14.7255 10.6614 14.9216 10.1715C15.1176 9.68154 15.2156 9.17853 15.2156 8.66244C15.2156 8.08102 15.0915 7.56657 14.8432 7.11908C14.5948 6.67158 14.2565 6.31881 13.8284 6.06077C13.4003 5.80273 12.9085 5.6737 12.3529 5.6737C11.8366 5.6737 11.3758 5.81089 10.9705 6.08526C10.5654 6.35964 10.2418 6.71894 9.99999 7.16317C9.75816 6.71894 9.43626 6.35964 9.0343 6.08526C8.63234 5.81089 8.16993 5.6737 7.64705 5.6737Z" fill="#FF3B30"/>
</g>
</svg>
