<svg xmlns="http://www.w3.org/2000/svg" width="21" height="20" viewBox="0 0 21 20" fill="none">
  <path d="M10.9219 19.9903C12.2879 19.9903 13.5738 19.7289 14.7797 19.2063C15.9856 18.6837 17.0493 17.9618 17.9709 17.0407C18.8925 16.1196 19.6147 15.0564 20.1375 13.8511C20.6604 12.6458 20.9219 11.3605 20.9219 9.99512C20.9219 8.62978 20.6604 7.34445 20.1375 6.13916C19.6147 4.93387 18.8925 3.87066 17.9709 2.94954C17.0493 2.02842 15.984 1.30655 14.7748 0.783931C13.5656 0.26131 12.2781 0 10.9121 0C9.54605 0 8.2601 0.26131 7.05422 0.783931C5.84834 1.30655 4.78625 2.02842 3.86795 2.94954C2.94965 3.87066 2.22906 4.93387 1.70619 6.13916C1.18331 7.34445 0.921875 8.62978 0.921875 9.99512C0.921875 11.3605 1.18331 12.6458 1.70619 13.8511C2.22906 15.0564 2.95128 16.1196 3.87285 17.0407C4.79442 17.9618 5.85814 18.6837 7.06402 19.2063C8.2699 19.7289 9.55585 19.9903 10.9219 19.9903Z" fill="#FF3B30"/>
  <path d="M8.49052 5.52637C9.03301 5.52637 9.51013 5.66682 9.92189 5.94773C10.3337 6.22864 10.667 6.60101 10.9219 7.06484C11.1702 6.60101 11.5019 6.22864 11.9169 5.94773C12.332 5.66682 12.8075 5.52637 13.3434 5.52637C13.9186 5.52637 14.4284 5.65866 14.8729 5.92323C15.3173 6.18781 15.6653 6.55201 15.917 7.01584C16.1686 7.47967 16.2944 8.01208 16.2944 8.61309C16.2944 9.14225 16.1931 9.65835 15.9906 10.1614C15.7879 10.6644 15.515 11.1511 15.1719 11.6214C14.8287 12.0918 14.4447 12.5344 14.02 12.9492C13.5951 13.3641 13.1588 13.7462 12.7111 14.0958C12.2634 14.4452 11.8337 14.7539 11.4219 15.0217C11.3435 15.074 11.2601 15.1263 11.1719 15.1786C11.0837 15.2308 11.0068 15.2569 10.9415 15.2569C10.8761 15.2569 10.7944 15.2308 10.6964 15.1786C10.5984 15.1263 10.5036 15.074 10.4121 15.0217C10.0003 14.7539 9.56896 14.4468 9.11797 14.1006C8.66699 13.7544 8.22909 13.3739 7.80425 12.959C7.37942 12.5442 6.99543 12.1016 6.6523 11.6312C6.30916 11.1609 6.03791 10.6726 5.83857 10.1662C5.63922 9.65996 5.53955 9.14225 5.53955 8.61309C5.53955 8.01208 5.66537 7.47967 5.91701 7.01584C6.16863 6.55201 6.51667 6.18781 6.96111 5.92323C7.40556 5.65866 7.91537 5.52637 8.49052 5.52637Z" fill="white"/>
</svg>