<svg width="85" height="102" viewBox="0 0 85 102" fill="none" xmlns="http://www.w3.org/2000/svg">
<path d="M68 90L68.018 96.756C68.0259 99.6554 70.2587 102 73.0087 102C73.0134 102 73.0185 102 73.0231 102C75.7796 101.992 78.0078 99.6305 78 96.7263L77.9819 90H68Z" fill="#FACA10"/>
<path d="M55.0006 89L55 96.8769C54.9998 99.7062 57.2381 102 59.9995 102C59.9997 102 59.9997 102 59.9999 102C62.7609 102 64.9996 99.7066 64.9996 96.8775L65 90.3102H58.6357C57.2615 90.3107 55.9976 89.8191 55.0006 89Z" fill="#FACA10"/>
<path d="M12 18C16.9706 18 21 13.9706 21 9C21 4.02944 16.9706 0 12 0C7.02944 0 3 4.02944 3 9C3 13.9706 7.02944 18 12 18Z" fill="#FACA10"/>
<path d="M34.1555 36.5899L20.4913 34.9903L11.5554 26.1308L20.0313 30.5648L23.1564 30.9306V27.0791C23.1564 23.7218 20.4289 21 17.0641 21H6.19961C2.83497 21 0.107248 23.7218 0.107248 27.0791L2.16399e-05 96.7747C-0.00819238 99.6522 2.32303 101.992 5.20704 102C5.21215 102 5.21703 102 5.22214 102C8.09904 102 10.4354 99.6767 10.4436 96.8041L10.5528 58.2831C10.5528 58.2783 10.5526 58.2734 10.5526 58.2685H12.8046L12.8075 96.7899C12.8077 99.6674 15.1458 102 18.0296 102C20.9134 102 23.2512 99.6668 23.251 96.7893C23.2475 50.4421 23.1562 48.4179 23.1562 48.4179L17.4768 47.7532C15.7399 47.5498 13.606 47.591 12.3566 45.2883L5.42083 32.2911L15.4235 42.2084C16.1146 42.8935 17.0161 43.3275 17.9836 43.4407L33.1411 45.215C35.5305 45.4944 37.6901 43.788 37.9699 41.4085C38.2503 39.0265 36.5424 36.8692 34.1555 36.5899Z" fill="#FACA10"/>
<path d="M66 18C70.9706 18 75 13.9706 75 9C75 4.02944 70.9706 0 66 0C61.0294 0 57 4.02944 57 9C57 13.9706 61.0294 18 66 18Z" fill="#FACA10"/>
<path d="M82.7077 66.3892H78.1752C78.1752 63.6536 78.1752 63.1785 78.1752 59.9903C78.1752 58.7733 77.1875 57.7868 75.9692 57.7868H75.2824C75.5291 56.2529 77.1803 45.9834 77.4434 44.3459C77.5584 43.632 77.4918 42.9009 77.2502 42.2194L72.1302 27.7788L72.4375 28.2349L78.0598 36.582V27.047C78.0598 23.7074 75.3493 21 72.0058 21H61.2097C57.8662 21 55.1557 23.7074 55.1557 27.047V28.5835L41.2956 36.4971C42.1888 38.0486 42.6093 39.8896 42.3845 41.8038C42.0982 44.2426 40.8193 46.3225 39 47.6928C39.2118 47.6128 39.4205 47.5174 39.6234 47.4017L55.1554 38.5334L55.0639 63.9676C56.8845 62.5108 58.6849 62.6433 59.6167 62.6433V59.9903C59.6167 57.6594 60.9829 55.5784 63.0367 54.6087L65.0076 42.3511L64.2176 33.3594L63.978 30.663L68.7296 44.0643C68.5006 45.488 66.7793 56.1941 66.5234 57.7868H65.5732C64.3548 57.7868 63.3672 58.7733 63.3672 59.9903C63.3672 63.1514 63.3672 63.6721 63.3672 66.3892H58.8349C57.5686 66.3892 56.5424 67.4145 56.5424 68.6791V83.7101C56.5424 84.9749 57.5688 86 58.8349 86H82.7075C83.9737 86 85 84.9747 85 83.7101V68.6791C85.0002 67.4145 83.9738 66.3892 82.7077 66.3892ZM69.9868 63.4846C70.2191 63.5218 70.4499 63.5399 70.6778 63.5399C71.6497 63.5399 72.5652 63.2085 73.3027 62.643H73.7629V66.389H67.7793V62.643H68.0341C68.5864 63.0685 69.2498 63.3664 69.9868 63.4846Z" fill="#FACA10"/>
</svg>
