<svg width="102" height="102" viewBox="0 0 102 102" fill="none" xmlns="http://www.w3.org/2000/svg">
<path d="M19.3069 26.575V7.225C19.3069 6.107 19.4356 5.032 19.736 4H7.50825C3.38944 4 0 7.397 0 11.525V30.875C0 35.003 3.38944 38.4 7.50825 38.4H9.09571L14.5875 45.71C15.1881 46.484 16.0891 46.957 17.033 47H17.1617C18.1056 47 18.9637 46.613 19.5644 45.882L26 38.529C22.0099 36.035 19.3069 31.606 19.3069 26.575Z" fill="#FACA10"/>
<path d="M94.4917 4H82.264C82.5644 5.032 82.6931 6.107 82.6931 7.225V26.575C82.6931 31.606 79.9901 36.035 76 38.529L82.4356 45.882C83.0363 46.613 83.8944 47 84.8383 47H84.967C85.9109 46.957 86.8119 46.484 87.4125 45.71L92.8614 38.4H94.4917C98.6106 38.4 102 35.003 102 30.875V11.525C102 7.397 98.6106 4 94.4917 4Z" fill="#FACA10"/>
<path d="M51.5 43C51.4618 43 51.4193 43 51.381 43C50.4205 42.9613 49.528 42.4883 48.95 41.71L43.5312 34.4H33.4375C29.3363 34.4 26 31.0245 26 26.875V7.525C26 3.3755 29.3363 0 33.4375 0H69.5625C73.6637 0 77 3.3755 77 7.525V26.875C77 31.0245 73.6637 34.4 69.5625 34.4H60.3825L53.897 41.8992C53.2935 42.6001 52.418 43 51.5 43Z" fill="#FACA10"/>
<path d="M17.5 72C22.1944 72 26 68.1944 26 63.5C26 58.8056 22.1944 55 17.5 55C12.8056 55 9 58.8056 9 63.5C9 68.1944 12.8056 72 17.5 72Z" fill="#FACA10"/>
<path d="M28 78.7C23.7601 81.93 20.9895 87.115 20.9895 92.9375V94H3.14843C1.42729 94 0 92.555 0 90.8125V88.6875C0 82.2275 5.16342 77 11.5442 77H22.039C24.2219 77 26.2789 77.6375 28 78.7Z" fill="#FACA10"/>
<path d="M85.5 72C90.1944 72 94 68.1944 94 63.5C94 58.8056 90.1944 55 85.5 55C80.8056 55 77 58.8056 77 63.5C77 68.1944 80.8056 72 85.5 72Z" fill="#FACA10"/>
<path d="M102 88.6875V90.8125C102 92.555 100.573 94 98.8516 94H81.0105V92.9375C81.0105 87.115 78.2399 81.93 74 78.7C75.7211 77.6375 77.7781 77 79.961 77H90.4558C96.8366 77 102 82.2275 102 88.6875Z" fill="#FACA10"/>
<path d="M51 75C58.1797 75 64 69.1797 64 62C64 54.8203 58.1797 49 51 49C43.8203 49 38 54.8203 38 62C38 69.1797 43.8203 75 51 75Z" fill="#FACA10"/>
<path d="M63.25 81H39.75C33.2683 81 28 86.1786 28 92.55V98.85C28 100.589 29.4356 102 31.2045 102H71.7955C73.5644 102 75 100.589 75 98.85V92.55C75 86.1786 69.7317 81 63.25 81Z" fill="#FACA10"/>
</svg>
