<svg width="90" height="102" viewBox="0 0 90 102" fill="none" xmlns="http://www.w3.org/2000/svg">
<path d="M87.2382 42.7478L47.2552 2.75436C44.8971 0.401814 41.0826 0.429649 38.7553 2.75135C36.4149 5.09809 36.4149 8.90845 38.7553 11.2522L78.7442 51.2428C81.0868 53.5857 84.8953 53.5857 87.2382 51.2428C89.5873 48.8935 89.5873 45.0967 87.2382 42.7478Z" fill="#FACA10"/>
<path d="M35.5497 17L35.2485 18.5055C33.1274 29.0878 27.9724 39.1413 21 47.2896L42.7675 69C50.9362 62.0473 60.8772 56.7677 71.4878 54.6495L73 54.3492L35.5497 17Z" fill="#FACA10"/>
<path d="M17.6233 51L2.65766 65.9633C-0.878525 69.4996 -0.893238 75.2408 2.65766 78.7918L11.2078 87.3423C14.744 90.8786 20.4849 90.8932 24.0358 87.3423L39 72.3774L17.6233 51ZM19.7609 74.5168C18.58 75.6977 16.6667 75.6977 15.4859 74.5168C14.305 73.3358 14.305 71.4225 15.4859 70.2415L19.7609 65.9663C20.9418 64.7854 22.8551 64.7854 24.036 65.9663C25.2169 67.1472 25.2169 69.0606 24.036 70.2415L19.7609 74.5168Z" fill="#FACA10"/>
<path d="M51.1782 88.7301L55.3213 84.6718C58.8987 81.1683 58.887 75.5032 55.3215 72.0165L52.2442 69C50.5433 70.1191 48.9189 71.3351 47.3396 72.6327L51.0147 76.2379C52.2015 77.3944 52.2098 79.2767 51.0147 80.4535L46.8032 84.5788L40.614 78.7051L32 87.1426L45.8186 100.259C48.1768 102.574 52.0486 102.588 54.4291 100.256C56.8056 97.9278 56.8056 94.1434 54.4291 91.8154L51.1782 88.7301Z" fill="#FACA10"/>
<path d="M63 0C61.3418 0 60 1.3418 60 3V9C60 10.6582 61.3418 12 63 12C64.6582 12 66 10.6582 66 9V3C66 1.3418 64.6582 0 63 0Z" fill="#FACA10"/>
<path d="M87 24H81C79.3418 24 78 25.3418 78 27C78 28.6582 79.3418 30 81 30H87C88.6582 30 90 28.6582 90 27C90 25.3418 88.6582 24 87 24Z" fill="#FACA10"/>
<path d="M83.1211 6.87885C81.9493 5.70705 80.0507 5.70705 78.8789 6.87885L72.8789 12.8789C71.707 14.0507 71.707 15.9493 72.8789 17.1211C74.0507 18.2929 75.9493 18.2931 77.1211 17.1211L83.1211 11.1211C84.293 9.94926 84.293 8.05065 83.1211 6.87885Z" fill="#FACA10"/>
</svg>
