<svg width="41" height="40" viewBox="0 0 41 40" fill="none" xmlns="http://www.w3.org/2000/svg">
<g clip-path="url(#clip0_800_17930)">
<path d="M20.4994 40C31.5451 40 40.4994 31.0457 40.4994 20C40.4994 8.95431 31.5451 0 20.4994 0C9.4537 0 0.49939 8.95431 0.49939 20C0.49939 31.0457 9.4537 40 20.4994 40Z" fill="url(#paint0_linear_800_17930)"/>
<path fill-rule="evenodd" clip-rule="evenodd" d="M9.55252 19.7889C15.3829 17.2487 19.2708 15.574 21.2161 14.7649C26.7703 12.4547 27.9244 12.0534 28.6766 12.0402C28.8421 12.0373 29.212 12.0783 29.4516 12.2727C29.654 12.4369 29.7097 12.6587 29.7363 12.8143C29.7629 12.97 29.7961 13.3246 29.7697 13.6017C29.4688 16.7641 28.1664 24.4386 27.5038 27.9806C27.2235 29.4794 26.6714 29.9819 26.137 30.0311C24.9756 30.138 24.0936 29.2635 22.9687 28.5261C21.2085 27.3723 20.214 26.654 18.5054 25.528C16.5308 24.2268 17.8108 23.5116 18.9362 22.3428C19.2307 22.0369 24.348 17.3823 24.447 16.96C24.4594 16.9072 24.4709 16.7104 24.354 16.6065C24.237 16.5025 24.0644 16.5381 23.9399 16.5663C23.7633 16.6064 20.9513 18.465 15.5038 22.1423C14.7056 22.6904 13.9826 22.9574 13.3348 22.9434C12.6207 22.928 11.2471 22.5397 10.2259 22.2077C8.97343 21.8006 7.97797 21.5853 8.06465 20.8939C8.1098 20.5337 8.60576 20.1654 9.55252 19.7889Z" fill="white"/>
</g>
<defs>
<linearGradient id="paint0_linear_800_17930" x1="20.4994" y1="0" x2="20.4994" y2="39.7033" gradientUnits="userSpaceOnUse">
<stop stop-color="#2AABEE"/>
<stop offset="1" stop-color="#229ED9"/>
</linearGradient>
<clipPath id="clip0_800_17930">
<rect width="40" height="40" fill="white" transform="translate(0.49939)"/>
</clipPath>
</defs>
</svg>
