<svg width="14" height="16" viewBox="0 0 14 16" fill="none" xmlns="http://www.w3.org/2000/svg">
<path d="M0.753815 16H13.3077V13.0833C13.3063 12.0007 12.843 10.9629 12.0193 10.1973C11.1955 9.43184 10.0787 9.00124 8.91382 9H5.14766C3.98275 9.00124 2.86593 9.43184 2.04221 10.1973C1.21849 10.9629 0.755144 12.0007 0.753815 13.0833V16Z" fill="#403A4B" fill-opacity="0.6"/>
<path d="M2.84612 4C2.84612 4.79112 3.09154 5.56448 3.55135 6.22228C4.01116 6.88008 4.66471 7.39277 5.42935 7.69552C6.19398 7.99827 7.03537 8.07748 7.84711 7.92314C8.65884 7.7688 9.40447 7.38784 9.9897 6.82843C10.5749 6.26902 10.9735 5.55628 11.1349 4.78036C11.2964 4.00444 11.2135 3.20017 10.8968 2.46927C10.5801 1.73836 10.0437 1.11365 9.35558 0.674121C8.66742 0.234596 7.85837 0 7.03073 0C5.9209 0 4.85653 0.421427 4.07176 1.17157C3.28699 1.92172 2.84612 2.93913 2.84612 4Z" fill="#403A4B" fill-opacity="0.6"/>
</svg>
