<svg width="40" height="40" viewBox="0 0 40 40" fill="none" xmlns="http://www.w3.org/2000/svg">
<g clip-path="url(#clip0_800_17931)">
<path d="M-0.000610352 19.2C-0.000610352 10.149 -0.000610352 5.62355 2.81116 2.81177C5.62294 0 10.1484 0 19.1994 0H20.7994C29.8504 0 34.3758 0 37.1876 2.81177C39.9994 5.62355 39.9994 10.149 39.9994 19.2V20.8C39.9994 29.851 39.9994 34.3764 37.1876 37.1882C34.3758 40 29.8504 40 20.7994 40H19.1994C10.1484 40 5.62294 40 2.81116 37.1882C-0.000610352 34.3764 -0.000610352 29.851 -0.000610352 20.8V19.2Z" fill="#0077FF"/>
<path d="M21.2827 28.817C12.1661 28.817 6.96613 22.567 6.74947 12.167H11.3161C11.4661 19.8003 14.8327 23.0337 17.4994 23.7003V12.167H21.7995V18.7503C24.4329 18.467 27.1992 15.467 28.1325 12.167H32.4326C31.716 16.2337 28.716 19.2337 26.5826 20.467C28.716 21.467 32.1328 24.0837 33.4328 28.817H28.6993C27.6826 25.6503 25.1495 23.2003 21.7995 22.867V28.817H21.2827Z" fill="white"/>
</g>
<defs>
<clipPath id="clip0_800_17931">
<rect width="40" height="40" fill="white" transform="translate(-0.000610352)"/>
</clipPath>
</defs>
</svg>
