<svg width="40" height="41" viewBox="0 0 40 41" fill="none" xmlns="http://www.w3.org/2000/svg">
<g clip-path="url(#clip0_1846_7998)">
<path d="M0 19.7C0 10.649 0 6.12355 2.81177 3.31177C5.62355 0.5 10.149 0.5 19.2 0.5H20.8C29.851 0.5 34.3764 0.5 37.1882 3.31177C40 6.12355 40 10.649 40 19.7V21.3C40 30.351 40 34.8764 37.1882 37.6882C34.3764 40.5 29.851 40.5 20.8 40.5H19.2C10.149 40.5 5.62355 40.5 2.81177 37.6882C0 34.8764 0 30.351 0 21.3V19.7Z" fill="url(#paint0_linear_1846_7998)"/>
<path d="M14.7205 28.4847L15.0867 28.6657C16.6127 29.5706 18.3217 29.9929 20.0307 29.9929C25.4019 29.9929 29.7965 25.6492 29.7965 20.3403C29.7965 17.8065 28.7588 15.333 26.9278 13.5231C25.0967 11.7132 22.6552 10.6876 20.0307 10.6876C14.6595 10.6876 10.2648 15.0313 10.3259 20.4006C10.3259 22.2104 10.8752 23.9601 11.7908 25.4682L12.0349 25.8303L11.0584 29.3897L14.7205 28.4847Z" fill="#31D652"/>
<path d="M27.9654 12.5578C25.8902 10.4463 23.0215 9.3 20.0917 9.3C13.8661 9.3 8.86108 14.3073 8.92206 20.4005C8.92206 22.3311 9.47139 24.2014 10.387 25.8905L8.8 31.6218L14.7205 30.1136C16.3685 31.0186 18.1995 31.4409 20.0307 31.4409C26.1954 31.4409 31.2004 26.4335 31.2004 20.3403C31.2004 17.3842 30.0405 14.609 27.9654 12.5578ZM20.0917 29.5707C18.4437 29.5707 16.7958 29.1485 15.3919 28.3038L15.0257 28.1228L11.4856 29.0277L12.4011 25.589L12.157 25.227C9.47139 20.9437 10.7532 15.2726 15.1478 12.6181C19.5424 9.96361 25.2188 11.2306 27.9044 15.5742C30.59 19.9179 29.3082 25.5286 24.9137 28.1831C23.5097 29.088 21.8008 29.5707 20.0917 29.5707ZM25.4629 22.8742L24.7915 22.5726C24.7915 22.5726 23.815 22.1502 23.2046 21.8486C23.1435 21.8486 23.0825 21.7882 23.0215 21.7882C22.8383 21.7882 22.7163 21.8486 22.5942 21.909C22.5942 21.909 22.5332 21.9692 21.6787 22.9345C21.6176 23.0552 21.4956 23.1155 21.3735 23.1155H21.3124C21.2514 23.1155 21.1294 23.0552 21.0683 22.9949L20.7631 22.8742C20.0917 22.5726 19.4814 22.2105 18.993 21.7279C18.871 21.6073 18.6879 21.4866 18.5658 21.366C18.1385 20.9437 17.7113 20.461 17.4062 19.918L17.3451 19.7974C17.2841 19.737 17.2841 19.6767 17.223 19.5561C17.223 19.4354 17.223 19.3148 17.2841 19.2544C17.2841 19.2544 17.5282 18.9528 17.7113 18.7718C17.8334 18.6511 17.8944 18.4702 18.0165 18.3495C18.1385 18.1685 18.1996 17.9272 18.1385 17.7462C18.0775 17.4445 17.3451 15.8156 17.162 15.4537C17.0399 15.2727 16.9179 15.2124 16.7348 15.152H16.0634C15.9412 15.152 15.8192 15.2124 15.6971 15.2124L15.636 15.2727C15.514 15.333 15.3919 15.4537 15.2698 15.514C15.1478 15.6347 15.0867 15.7553 14.9646 15.876C14.5374 16.419 14.2933 17.0826 14.2933 17.7462C14.2933 18.2288 14.4153 18.7115 14.5984 19.1338L14.6595 19.3148C15.2088 20.461 15.9412 21.4866 16.9179 22.3915L17.162 22.6328C17.3451 22.8139 17.5282 22.9345 17.6503 23.1154C18.9321 24.2014 20.3969 24.9857 22.0449 25.408C22.228 25.4683 22.4721 25.4683 22.6553 25.5287H23.2656C23.5708 25.5287 23.937 25.408 24.1812 25.2874C24.3642 25.1667 24.4863 25.1667 24.6084 25.0461L24.7305 24.9253C24.8526 24.8047 24.9746 24.7444 25.0967 24.6238C25.2188 24.5031 25.3408 24.3825 25.4019 24.2617C25.524 24.0204 25.585 23.7188 25.646 23.4172V22.9949C25.646 22.9949 25.5849 22.9345 25.4629 22.8742Z" fill="white"/>
</g>
<defs>
<linearGradient id="paint0_linear_1846_7998" x1="20" y1="0.5" x2="20" y2="40.5" gradientUnits="userSpaceOnUse">
<stop stop-color="#42E760"/>
<stop offset="0.765625" stop-color="#29CB4A"/>
</linearGradient>
<clipPath id="clip0_1846_7998">
<rect width="40" height="40" fill="white" transform="translate(0 0.5)"/>
</clipPath>
</defs>
</svg>
